<svg xmlns="http://www.w3.org/2000/svg" width="735" height="505" viewBox="0 0 735 505" fill="none">
  <defs>
    <radialGradient id="bgGlow" cx="50%" cy="45%" r="70%">
      <stop offset="0" stop-color="#1c5b55" stop-opacity="0.42"/>
      <stop offset="0.55" stop-color="#0b2b27" stop-opacity="0.86"/>
      <stop offset="1" stop-color="#061512" stop-opacity="1"/>
    </radialGradient>
    <linearGradient id="panelFill" x1="0" y1="0" x2="1" y2="1">
      <stop offset="0" stop-color="#113b37" stop-opacity="0.72"/>
      <stop offset="1" stop-color="#071c19" stop-opacity="0.72"/>
    </linearGradient>
    <filter id="cyanGlow" x="-40%" y="-40%" width="180%" height="180%">
      <feGaussianBlur stdDeviation="2.2" result="blur"/>
      <feMerge>
        <feMergeNode in="blur"/>
        <feMergeNode in="SourceGraphic"/>
      </feMerge>
    </filter>
    <filter id="softShadow" x="-30%" y="-30%" width="160%" height="160%">
      <feDropShadow dx="0" dy="8" stdDeviation="12" flood-color="#000000" flood-opacity="0.55"/>
    </filter>
    <pattern id="scan" width="4" height="4" patternUnits="userSpaceOnUse">
      <rect width="4" height="1" fill="#8ffff1" opacity="0.025"/>
    </pattern>
    <style>
      .terminal{font-family:'Courier New',monospace;font-weight:700;letter-spacing:.4px;fill:#77fff0}
      .small{font-size:7px}.label{font-size:9px}.title{font-size:20px}.head{font-size:11px}
      .stroke{stroke:#20e7dc;stroke-width:1.15;stroke-opacity:.92}.dim{stroke:#20e7dc;stroke-opacity:.32}.faint{stroke:#8ffff1;stroke-opacity:.18}
      .fillPanel{fill:url(#panelFill)}.transparent{fill:#08221f;fill-opacity:.48}
    </style>
  </defs>

  <rect x="4" y="4" width="727" height="496" rx="20" class="fillPanel"/>


  <g filter="url(#softShadow)">
    <rect x="4" y="4" width="727" height="496" rx="20" class="fillPanel"/>
	<!-- CLIP PATH FOR ROUNDED PANEL -->
	<clipPath id="panelClip">
	<rect x="4" y="4" width="727" height="496" rx="20"/>
	</clipPath>

<!-- OUTER PANEL WITH PROPER CLIPPING -->
	<g clip-path="url(#panelClip)">
	<rect x="4" y="4" width="727" height="496" rx="20" class="fillPanel"/>
	<rect x="4" y="4" width="727" height="496" rx="20" class="fillPanel stroke"/>
	</g>

    <path d="M17 38 H296" class="faint"/>
    <path d="M504 38 H718" class="faint"/>
    <text x="18" y="28" class="terminal title">EQUIPMENT</text>
    <rect x="697" y="13" width="21" height="21" rx="4" class="transparent stroke" filter="url(#cyanGlow)"/>
    <path d="M704 19 L711 27 M711 19 L704 27" class="stroke"/>
  </g>

  <!-- Inventory panel -->
  <g>
    <rect x="18" y="48" width="174" height="436" rx="5" class="transparent stroke"/>
    <text x="28" y="66" class="terminal head">INVENTORY</text>
    <path d="M28 75 H181" class="dim"/>
    
    
    
   
    <rect x="25" y="108" width="160" height="340" rx="4" fill="none" stroke="#78fff3" stroke-opacity=".05" stroke-dasharray="3 3"/>
    <g transform="translate(105 253)" class="dim">
      <path d="M-15 3 h30 v14 h-30 z" fill="none" stroke-width="2"/>
      <path d="M-9 3 l4 -8 h10 l4 8" fill="none" stroke-width="2"/>
      <path d="M-5 8 h10" fill="none" stroke-width="2"/>
    </g>
    <text x="58" y="287" class="terminal small">No items available</text>
    <rect x="25" y="456" width="160" height="20" rx="3" fill="#0b2a27" fill-opacity=".7" class="stroke"/>
    <text x="32" y="469" class="terminal small">Sort: Type</text>
    <path d="M173 464 l4 4 l4 -4" class="stroke"/>
  </g>

  <!-- Equipped panel -->
  <g>
    <rect x="210" y="48" width="307" height="436" rx="5" class="transparent stroke"/>
    <text x="222" y="66" class="terminal head">EQUIPPED</text>
    <path d="M222 75 H397" class="dim"/>

    <!-- character silhouette -->
    <g transform="translate(302 92) scale(0.05645)" opacity="0.22" fill="#77fff0" stroke="#20e7dc" stroke-width="18" stroke-opacity="0.55" filter="url(#cyanGlow)">
      <path d="
M1532.035889,1472.013550 
	C1524.171265,1531.129517 1510.300415,1589.108887 1498.828979,1647.542603 
	C1488.441406,1700.455566 1478.302979,1753.418945 1472.486938,1807.078247 
	C1468.965698,1839.564331 1468.382446,1872.116333 1470.885742,1904.751831 
	C1473.609497,1940.262573 1475.378784,1975.847534 1478.224487,2011.347290 
	C1482.213623,2061.112793 1485.589722,2110.993164 1494.278687,2160.218018 
	C1498.726440,2185.416504 1505.135254,2210.274170 1510.835449,2235.245605 
	C1526.027100,2301.796143 1538.594604,2368.837891 1547.470581,2436.517578 
	C1555.525879,2497.939697 1560.907471,2559.603516 1562.391357,2621.588379 
	C1564.170044,2695.881348 1562.349243,2770.103516 1558.033325,2844.252686 
	C1554.764648,2900.409912 1550.952515,2956.549805 1546.323364,3012.609863 
	C1542.296265,3061.378906 1537.650391,3110.131592 1531.677490,3158.694824 
	C1526.196411,3203.258789 1519.037354,3247.635986 1511.716553,3291.946533 
	C1507.763306,3315.875244 1501.051880,3339.349365 1497.129761,3363.281494 
	C1490.417969,3404.235840 1490.176270,3445.356445 1494.909790,3486.721191 
	C1501.578613,3544.997803 1505.945190,3603.541016 1499.558350,3662.116455 
	C1497.643188,3679.679688 1503.211060,3695.619629 1504.928711,3712.342285 
	C1508.397339,3746.113281 1513.027222,3779.780518 1515.806885,3813.603027 
	C1519.603027,3859.793945 1519.134399,3906.143799 1517.552124,3952.428223 
	C1516.164185,3993.026123 1512.774414,4033.520264 1507.008667,4073.741211 
	C1500.396851,4119.863770 1493.591553,4165.969238 1485.970093,4211.932617 
	C1476.878296,4266.762695 1467.124146,4321.488770 1457.122559,4376.162109 
	C1445.209717,4441.282715 1432.723877,4506.298828 1420.498657,4571.362305 
	C1417.389648,4587.909180 1416.988525,4604.245605 1421.805786,4620.739746 
	C1431.619507,4654.342285 1432.972412,4688.791992 1432.178955,4723.631836 
	C1431.110840,4770.520020 1428.208252,4758.036621 1452.502319,4798.236816 
	C1472.038452,4830.563965 1497.385132,4858.590332 1520.785400,4888.066406 
	C1538.573730,4910.473633 1555.275391,4933.758301 1571.981934,4956.997559 
	C1576.182983,4962.841309 1579.386230,4969.737305 1581.591309,4976.616699 
	C1587.181030,4994.056152 1582.124268,5004.396484 1565.174683,5011.967773 
	C1564.410156,5015.932129 1564.157104,5020.291504 1562.702515,5024.203125 
	C1558.684570,5035.006836 1550.494507,5041.320801 1539.478760,5044.196777 
	C1536.385620,5045.004395 1533.310059,5045.064453 1531.217529,5048.677246 
	C1525.160645,5059.135254 1515.534058,5061.218750 1504.450439,5058.516113 
	C1500.639282,5057.586914 1496.924194,5056.263184 1493.215820,5055.135254 
	C1482.544556,5073.985352 1463.105225,5079.037109 1445.036011,5066.826172 
	C1437.165649,5061.507324 1430.690796,5054.122559 1423.339722,5047.456543 
	C1423.147705,5047.938477 1422.543579,5048.705566 1422.600464,5049.420898 
	C1423.943848,5066.329590 1413.694214,5075.680176 1399.538208,5079.945312 
	C1382.784546,5084.993652 1367.705811,5080.557617 1352.752930,5072.313477 
	C1322.880981,5055.845215 1306.967896,5029.195312 1298.270874,4997.872559 
	C1291.608887,4973.878906 1287.241943,4949.242676 1281.999268,4924.861328 
	C1279.762573,4914.459961 1277.951050,4903.967285 1275.808350,4893.544922 
	C1275.422729,4891.669434 1274.865723,4889.328613 1273.538086,4888.224121 
	C1257.785278,4875.121582 1253.123413,4856.801270 1249.818970,4837.948242 
	C1245.088135,4810.956543 1247.535522,4784.054688 1252.921021,4757.528320 
	C1265.472656,4695.704590 1272.102539,4633.330078 1274.754395,4570.301758 
	C1276.065430,4539.144531 1273.570435,4508.457520 1270.638306,4477.689941 
	C1267.733521,4447.208496 1264.457397,4416.728516 1260.077148,4386.431152 
	C1254.364014,4346.915039 1247.275269,4307.599609 1241.008789,4268.161621 
	C1230.721680,4203.420410 1219.968994,4138.743652 1210.680786,4073.858398 
	C1204.971680,4033.976562 1201.929565,3993.717285 1203.098511,3953.335449 
	C1203.569824,3937.051758 1205.457031,3920.814209 1206.410889,3904.538574 
	C1207.851440,3879.954590 1209.893799,3855.364258 1210.145996,3830.760986 
	C1210.592896,3787.138672 1210.723145,3743.479736 1209.438843,3699.881836 
	C1208.037598,3652.325439 1205.267212,3604.796875 1202.359741,3557.301025 
	C1200.142822,3521.087891 1197.521973,3484.866211 1193.698242,3448.795166 
	C1190.508423,3418.704102 1185.440308,3388.806641 1180.970947,3358.858398 
	C1175.469238,3321.993408 1169.537476,3285.191895 1164.140625,3248.312012 
	C1158.935669,3212.742676 1154.039307,3177.126953 1149.258179,3141.497803 
	C1144.653809,3107.184326 1140.219604,3072.846191 1135.989990,3038.484619 
	C1132.044434,3006.431641 1128.223633,2974.358887 1124.796509,2942.247070 
	C1121.546143,2911.791504 1118.503784,2881.303467 1116.051636,2850.775146 
	C1113.253296,2815.935303 1110.822144,2781.055908 1108.950317,2746.155029 
	C1107.255981,2714.561279 1106.523560,2682.916260 1109.552612,2651.323486 
	C1109.707764,2649.705566 1109.572632,2648.059814 1109.572632,2645.864014 
	C1097.636475,2643.103027 1085.993286,2643.240479 1073.590576,2645.660156 
	C1074.090332,2653.230713 1074.950439,2660.163086 1074.934326,2667.093506 
	C1074.870728,2694.386230 1075.682983,2721.747559 1074.046265,2748.955566 
	C1070.988770,2799.780029 1066.907471,2850.556152 1062.380859,2901.274658 
	C1058.859375,2940.730713 1054.382324,2980.112793 1049.662354,3019.447510 
	C1044.347778,3063.737305 1038.455688,3107.960205 1032.495850,3152.169434 
	C1027.248535,3191.093994 1021.794922,3229.994385 1016.004089,3268.841553 
	C1010.017395,3309.002197 1003.311829,3349.055664 997.316406,3389.215088 
	C993.926514,3411.921631 990.521301,3434.676758 988.550110,3457.532959 
	C984.545959,3503.961914 980.762573,3550.434814 978.281128,3596.963623 
	C975.675415,3645.823486 974.666260,3694.769531 973.020081,3743.679932 
	C971.248596,3796.315430 971.784119,3848.957275 976.549683,3901.389893 
	C979.390869,3932.650146 981.226868,3963.808594 979.671997,3995.139160 
	C977.656555,4035.747314 973.270874,4076.145996 966.966003,4116.277832 
	C956.946533,4180.053711 946.010681,4243.685547 935.690247,4307.414551 
	C929.785522,4343.876465 923.717224,4380.329102 918.869080,4416.938477 
	C915.024902,4445.966309 912.239441,4475.177246 910.181335,4504.391113 
	C904.599915,4583.614746 912.511353,4661.939941 927.155090,4739.755371 
	C932.142273,4766.256836 937.368774,4792.785645 935.618164,4819.985352 
	C934.632385,4835.301758 932.372803,4850.436523 926.215576,4864.683594 
	C922.507996,4873.263184 918.079224,4881.263672 910.858887,4887.702148 
	C908.303223,4889.981445 907.175476,4894.430664 906.450134,4898.097656 
	C902.770081,4916.703613 899.539917,4935.398438 895.954712,4954.023926 
	C891.545471,4976.930176 885.762085,4999.399902 876.514709,5020.970215 
	C865.913757,5045.697266 848.207031,5063.324219 824.702759,5075.576172 
	C816.005798,5080.108887 806.708618,5082.364746 796.813477,5082.109375 
	C773.826172,5081.515137 761.770020,5070.391602 759.706299,5046.628418 
	C756.626099,5050.019531 754.344910,5053.203125 751.423096,5055.608398 
	C745.304749,5060.645020 739.410278,5066.418457 732.420715,5069.840332 
	C715.573181,5078.088867 699.162964,5072.030762 690.259949,5055.041992 
	C686.368286,5056.241211 682.411560,5057.738770 678.325317,5058.666016 
	C667.637634,5061.088867 658.571594,5058.812988 652.059509,5049.220215 
	C650.889282,5047.496094 648.973206,5045.559570 647.090332,5045.149414 
	C629.142822,5041.238281 619.433228,5030.239258 618.024719,5012.166504 
	C600.484863,5003.744629 595.496460,4991.922363 602.583923,4973.769043 
	C605.458313,4966.406738 609.670227,4959.478516 613.907410,4952.751953 
	C632.249695,4923.633789 654.423706,4897.411621 676.365906,4871.032227 
	C701.531494,4840.776855 725.505310,4809.722168 744.673584,4775.154785 
	C749.562744,4766.337891 751.795044,4757.377441 751.654480,4747.568848 
	C751.468506,4734.584473 751.422363,4721.592773 750.942810,4708.618164 
	C749.901550,4680.444824 752.359741,4652.541992 760.460815,4625.604492 
	C766.852234,4604.351562 765.325745,4583.642578 761.359314,4562.522949 
	C744.345093,4471.926758 726.812256,4381.421387 710.717468,4290.661133 
	C699.330872,4226.450684 689.780029,4161.911133 679.721741,4097.469727 
	C671.703735,4046.100342 667.449829,3994.397217 665.479553,3942.416992 
	C662.899658,3874.352051 666.276855,3806.629883 674.482971,3739.110352 
	C676.769104,3720.300049 680.839722,3701.712402 683.527832,3682.941895 
	C684.454956,3676.468018 684.262817,3669.685547 683.567871,3663.152100 
	C679.535889,3625.245605 680.354431,3587.298340 682.948914,3549.406982 
	C685.063416,3518.524902 688.583252,3487.741699 691.200012,3456.890625 
	C693.263123,3432.567627 691.295654,3408.334961 688.993591,3384.106689 
	C685.706848,3349.516113 676.075073,3316.166260 669.718628,3282.185303 
	C663.419861,3248.513184 658.547302,3214.535889 654.224548,3180.542969 
	C649.059387,3139.925293 644.873169,3099.175537 640.770569,3058.431885 
	C637.569580,3026.641357 634.708496,2994.802979 632.479248,2962.931152 
	C629.344360,2918.110840 626.177124,2873.269775 624.406006,2828.383057 
	C622.201172,2772.500244 620.683777,2716.568359 620.201477,2660.646240 
	C619.716003,2604.351562 623.868103,2548.233643 629.419922,2492.195557 
	C639.549194,2389.955078 659.145386,2289.420410 682.921265,2189.628906 
	C690.587280,2157.452881 694.815002,2124.810303 697.844788,2092.004395 
	C702.100220,2045.927368 706.078796,1999.812256 709.204407,1953.647583 
	C711.564575,1918.789307 713.767578,1883.819214 713.548584,1848.914551 
	C713.312561,1811.285889 707.763855,1773.911255 700.800049,1736.936646 
	C687.253723,1665.012695 672.831177,1593.254272 659.063232,1521.371338 
	C655.998474,1505.370239 654.157898,1489.135376 651.712646,1473.014282 
	C651.223572,1469.789917 650.547974,1466.593872 648.526917,1463.362183 
	C639.001770,1502.407104 628.849182,1541.312134 620.096741,1580.529541 
	C606.548157,1641.236938 593.551636,1702.075073 581.111877,1763.019409 
	C573.858398,1798.555664 567.964966,1834.392578 565.896118,1870.693604 
	C565.138672,1883.984985 565.765564,1897.364136 564.796692,1910.632935 
	C562.361145,1943.986328 554.523499,1976.352417 545.191711,2008.326538 
	C519.775513,2095.411133 485.734497,2179.210938 446.420502,2260.812500 
	C409.831512,2336.758057 383.729858,2416.127686 364.822662,2498.048828 
	C364.060394,2501.351807 364.389313,2505.389160 365.574188,2508.577148 
	C371.432465,2524.339111 373.943634,2540.750244 375.704437,2557.312744 
	C379.199585,2590.189697 379.534180,2623.237305 377.897766,2656.150391 
	C374.525970,2723.966064 370.165527,2791.737793 365.546478,2859.482178 
	C364.488281,2875.001465 361.027924,2890.393555 358.049835,2905.723389 
	C357.130096,2910.457520 354.598297,2915.072510 352.000702,2919.241211 
	C348.205597,2925.331543 341.956635,2926.396973 335.276978,2925.627441 
	C328.912567,2924.894287 325.785706,2920.270508 324.949829,2914.905518 
	C322.958282,2902.122559 320.403198,2889.182129 320.628235,2876.350098 
	C321.100555,2849.416016 323.334351,2822.515869 324.579498,2795.589600 
	C324.931946,2787.967285 324.507141,2780.295654 324.128174,2772.662109 
	C324.026245,2770.609131 322.783020,2768.613281 322.063721,2766.591064 
	C321.328156,2766.554199 320.592590,2766.517334 319.857025,2766.480469 
	C318.620819,2771.482666 316.813354,2776.420898 316.244080,2781.497803 
	C313.275909,2807.967529 310.764496,2834.488525 307.820648,2860.960938 
	C304.730591,2888.747803 301.739227,2916.557617 297.819275,2944.231934 
	C296.635468,2952.589355 293.007568,2960.756592 289.496277,2968.559570 
	C287.833344,2972.255371 284.208954,2975.453613 280.771637,2977.885742 
	C273.514374,2983.021240 264.224976,2981.529541 259.981903,2973.839600 
	C256.881195,2968.219971 254.240845,2961.408203 254.296829,2955.153809 
	C254.496216,2932.876953 255.118332,2910.537598 257.102844,2888.358398 
	C259.920929,2856.863770 264.247955,2825.506592 267.572052,2794.052734 
	C268.479218,2785.468750 268.239807,2776.748535 268.229889,2768.091309 
	C268.227081,2765.624268 267.180573,2763.157959 266.428009,2759.889648 
	C261.235382,2763.384277 260.082520,2767.701172 259.531860,2772.325439 
	C257.682007,2787.859131 255.758957,2803.384766 254.026337,2818.931641 
	C249.601761,2858.634033 245.630295,2898.413818 235.969971,2937.299805 
	C233.732025,2946.308105 230.605713,2955.125977 227.389847,2963.847656 
	C225.916595,2967.843750 223.644882,2971.711182 221.028519,2975.089600 
	C212.692291,2985.853760 198.470032,2984.104004 192.936783,2971.594727 
	C188.796509,2962.234863 188.345779,2952.093506 189.199600,2942.140381 
	C190.478378,2927.233154 192.711548,2912.409912 194.442520,2897.539551 
	C198.251068,2864.821045 202.088684,2832.105469 205.727814,2799.367920 
	C207.161972,2786.466064 208.155960,2773.513916 209.221375,2760.573975 
	C209.489807,2757.313721 209.261551,2754.012695 209.261551,2750.484131 
	C204.286926,2749.822266 202.606644,2753.170898 201.384247,2756.566162 
	C198.908722,2763.441895 196.354263,2770.328369 194.521484,2777.389648 
	C182.395966,2824.106689 172.164658,2871.236084 163.847153,2918.788330 
	C162.363373,2927.271240 160.010666,2935.659180 157.333206,2943.853516 
	C155.917282,2948.187012 153.426270,2952.401367 150.557312,2955.977051 
	C145.381241,2962.427979 138.572174,2965.129639 130.132812,2962.907959 
	C122.037689,2960.776855 118.612999,2954.610596 118.286484,2947.389648 
	C117.748100,2935.482910 117.686638,2923.431152 118.920738,2911.596436 
	C120.817558,2893.406738 124.247818,2875.383057 126.545113,2857.227783 
	C129.888229,2830.807861 132.800186,2804.333252 135.900482,2777.882324 
	C139.000443,2751.434326 142.124527,2724.989014 145.192947,2698.537109 
	C145.788727,2693.401123 146.177078,2688.240967 146.859146,2680.985596 
	C138.257599,2688.720947 133.258255,2696.420654 128.484116,2704.278320 
	C116.253479,2724.407471 101.088989,2742.059814 82.675613,2756.671875 
	C74.653275,2763.038330 65.750771,2768.460938 56.719952,2773.333252 
	C50.609135,2776.630371 43.207943,2778.934814 37.009979,2773.544922 
	C30.956106,2768.281006 31.508430,2761.008057 33.920586,2754.092773 
	C35.547817,2749.427490 37.211628,2744.494385 40.096142,2740.596436 
	C54.279179,2721.430420 64.102669,2699.886719 74.008369,2678.478516 
	C101.771347,2618.477539 138.315948,2564.317139 181.416061,2514.410889 
	C190.832947,2503.506592 201.361084,2493.767334 214.056732,2486.820068 
	C218.376083,2484.456543 220.403870,2481.083008 221.533310,2476.872070 
	C226.960342,2456.640869 233.616486,2436.618164 237.317764,2416.068115 
	C246.989517,2362.367920 256.075897,2308.538330 264.016327,2254.557373 
	C271.427399,2204.175293 277.355988,2153.567383 283.380188,2102.992432 
	C287.435730,2068.944580 290.451233,2034.774048 294.057739,2000.671753 
	C302.071381,1924.896484 316.015961,1850.513428 347.768066,1780.580322 
	C354.482697,1765.791504 362.944000,1751.771362 371.051483,1737.655884 
	C373.175415,1733.958008 374.058044,1730.570557 373.873962,1726.435669 
	C371.076324,1663.610474 376.720764,1601.347046 387.423370,1539.534668 
	C395.315552,1493.953735 404.097046,1448.522949 412.886597,1403.103394 
	C415.953735,1387.254150 416.046021,1371.374023 416.041107,1355.380737 
	C416.026154,1306.728149 415.231140,1258.046997 416.627686,1209.431274 
	C417.895660,1165.291382 425.627136,1122.099243 443.915802,1081.347656 
	C463.444183,1037.833740 494.799805,1005.393982 536.086548,982.106689 
	C565.206299,965.682068 596.376526,954.199646 628.069275,944.062744 
	C718.913269,915.006409 806.125061,877.487610 889.958862,832.069824 
	C897.556213,827.953857 904.879639,823.321777 912.246826,818.793701 
	C925.127197,810.877014 933.477783,799.410217 936.104736,784.639160 
	C938.483765,771.261780 939.592224,757.644775 940.953491,744.102539 
	C945.551575,698.358521 935.074890,654.801880 921.523865,611.700317 
	C916.150513,594.609192 910.910522,577.476135 905.574707,560.248657 
	C891.276306,557.854553 882.730896,548.281311 875.654907,537.029419 
	C864.703979,519.615906 858.640198,500.281158 854.103638,480.416473 
	C850.830139,466.082306 849.046997,451.562561 849.667297,436.816345 
	C849.779236,434.154205 849.772644,431.475769 850.079956,428.835052 
	C851.612061,415.669128 856.655762,410.680206 869.700439,409.321503 
	C871.319702,409.152832 872.956055,409.148071 874.521912,409.070496 
	C873.782410,387.437836 872.203491,366.245361 872.517334,345.080963 
	C873.117798,304.583588 878.177673,264.627289 894.376282,227.048325 
	C923.661743,159.109024 974.991699,117.070755 1047.308105,102.518906 
	C1110.366821,89.829933 1169.242188,101.892822 1221.576050,140.113022 
	C1262.492920,169.995224 1287.088135,211.150513 1299.878906,259.683716 
	C1306.782715,285.879211 1310.525635,312.578094 1310.245483,339.685944 
	C1310.029053,360.622955 1308.994751,381.551422 1308.339722,402.484192 
	C1308.278931,404.425903 1308.331543,406.371155 1308.331543,408.041412 
	C1308.963623,408.514374 1309.221802,408.875641 1309.498657,408.890747 
	C1330.716187,410.047882 1333.302490,418.547058 1333.669556,434.666351 
	C1334.496948,470.998962 1325.990601,505.306458 1307.626831,536.836670 
	C1300.937866,548.321411 1292.147949,557.782471 1277.116333,560.274109 
	C1268.036255,591.704956 1258.690430,623.218079 1249.882690,654.880798 
	C1245.146484,671.906738 1241.934448,689.334961 1241.873169,707.074463 
	C1241.789429,731.366455 1241.286011,755.703674 1245.751343,779.783569 
	C1249.103516,797.860168 1258.328369,811.488342 1274.256348,821.042603 
	C1308.832031,841.782593 1345.046387,859.274353 1381.540649,876.250061 
	C1441.615112,904.194397 1503.474854,927.450928 1566.432495,948.056763 
	C1589.413818,955.578491 1611.938477,964.968384 1633.805420,975.333252 
	C1699.970215,1006.695374 1739.359985,1059.673096 1755.988892,1130.349121 
	C1763.418701,1161.926147 1766.982178,1193.926758 1767.046997,1226.364502 
	C1767.123657,1264.677368 1768.825073,1303.045776 1767.267212,1341.286011 
	C1765.797241,1377.372437 1771.608398,1412.178833 1778.897705,1447.078247 
	C1790.127930,1500.846313 1799.841797,1554.888184 1805.558716,1609.549805 
	C1809.511719,1647.345215 1811.149902,1685.279907 1809.623535,1723.289551 
	C1809.362183,1729.796631 1810.722656,1735.276245 1814.376587,1740.943970 
	C1836.770508,1775.679810 1850.755981,1814.090332 1862.089233,1853.532593 
	C1875.267212,1899.394409 1883.280396,1946.234619 1888.387207,1993.654785 
	C1895.160156,2056.546875 1901.791504,2119.467041 1909.732666,2182.217285 
	C1917.002319,2239.662109 1925.461670,2296.969482 1934.299438,2354.197998 
	C1940.034912,2391.337646 1947.133057,2428.282227 1957.735107,2464.432861 
	C1958.483765,2466.986084 1959.368652,2469.504395 1960.008179,2472.083740 
	C1961.932373,2479.842773 1966.057495,2485.328125 1973.342773,2489.497314 
	C1988.288208,2498.050781 1999.591064,2510.959229 2010.370361,2524.123779 
	C2049.533203,2571.952148 2083.911377,2622.822998 2109.690430,2679.284912 
	C2119.346191,2700.433350 2129.155273,2721.595703 2143.231445,2740.430908 
	C2148.493164,2747.471680 2151.216309,2755.756592 2150.306396,2764.866943 
	C2149.531006,2772.629150 2145.654785,2776.904541 2138.057129,2776.031738 
	C2132.286133,2775.368164 2126.343994,2773.427734 2121.182617,2770.715088 
	C2102.322266,2760.801758 2087.151611,2746.257568 2073.636719,2730.090088 
	C2066.406006,2721.440186 2060.211914,2711.897705 2053.858154,2702.548828 
	C2049.020752,2695.430420 2044.530396,2688.097656 2036.295898,2681.348877 
	C2037.776367,2694.988525 2039.006470,2706.938232 2040.380737,2718.871582 
	C2045.637085,2764.517090 2050.769531,2810.177979 2056.303955,2855.789795 
	C2058.708496,2875.607178 2062.250977,2895.285400 2064.724609,2915.095703 
	C2065.833740,2923.980713 2065.750977,2933.033203 2065.861816,2942.013916 
	C2065.897705,2944.940186 2064.831787,2947.879639 2064.270264,2950.813232 
	C2061.605957,2964.738281 2044.817749,2967.082520 2035.775635,2959.155273 
	C2029.756958,2953.878906 2026.264526,2946.979492 2024.439209,2939.543701 
	C2021.192505,2926.318359 2018.997559,2912.839111 2015.995972,2899.548584 
	C2006.177979,2856.074951 1996.229614,2812.630371 1986.218628,2769.200684 
	C1985.253174,2765.012939 1983.807129,2760.866943 1982.014160,2756.963135 
	C1980.754517,2754.220459 1978.526489,2751.922363 1976.730835,2749.425781 
	C1976.058350,2749.657471 1975.385864,2749.888916 1974.713379,2750.120605 
	C1974.398438,2752.175049 1973.656372,2754.267090 1973.832031,2756.278564 
	C1976.813721,2790.436768 1979.439941,2824.636230 1983.143433,2858.717773 
	C1985.658569,2881.863525 1990.409790,2904.769531 1992.812378,2927.922607 
	C1994.101929,2940.350830 1992.770020,2953.086670 1992.110840,2965.656738 
	C1991.947266,2968.776367 1990.264160,2972.097168 1988.482788,2974.800293 
	C1982.319946,2984.151123 1969.955444,2984.929932 1963.138794,2976.021729 
	C1959.359253,2971.082520 1956.435425,2965.271729 1954.138794,2959.454346 
	C1946.765869,2940.779541 1942.701782,2921.163574 1940.049683,2901.378418 
	C1934.920410,2863.112549 1930.556274,2824.743896 1925.849365,2786.421387 
	C1925.240723,2781.466064 1924.878296,2776.428955 1923.665771,2771.615234 
	C1922.678589,2767.695312 1920.589844,2764.052979 1918.126709,2758.257812 
	C1913.817993,2767.055664 1913.876587,2773.908203 1914.600586,2780.661865 
	C1917.261353,2805.487549 1920.676636,2830.241455 1922.870117,2855.105469 
	C1925.618530,2886.259521 1927.763184,2917.478027 1929.421021,2948.708496 
	C1929.795776,2955.768066 1928.259399,2963.474365 1925.550171,2970.035400 
	C1920.332764,2982.671387 1907.778687,2984.369141 1898.120483,2974.502197 
	C1891.096313,2967.326416 1887.566528,2958.228027 1886.142822,2948.602783 
	C1883.076050,2927.868408 1880.405640,2907.066406 1878.042603,2886.239014 
	C1873.914673,2849.854492 1870.147827,2813.429199 1866.207275,2777.023193 
	C1865.786011,2773.131348 1865.398071,2769.164307 1860.622925,2766.177246 
	C1857.028931,2778.577393 1858.019531,2790.416016 1858.994385,2802.168701 
	C1861.501709,2832.395020 1863.492554,2862.642334 1861.875854,2892.973145 
	C1861.472168,2900.543945 1860.208618,2908.254883 1858.019653,2915.502441 
	C1854.559082,2926.960205 1840.817017,2929.819824 1832.741455,2920.888428 
	C1829.731812,2917.560059 1827.170776,2913.127930 1826.187744,2908.794434 
	C1823.103394,2895.197510 1819.786987,2881.507080 1818.521973,2867.673340 
	C1815.673096,2836.517822 1813.909180,2805.260498 1811.879028,2774.033203 
	C1809.741333,2741.150146 1807.721191,2708.258789 1805.808594,2675.361572 
	C1803.854980,2641.755859 1803.751099,2608.126953 1806.147217,2574.548584 
	C1807.781738,2551.642090 1809.684692,2528.711670 1818.402222,2507.022217 
	C1819.293091,2504.805908 1819.145630,2501.843994 1818.599854,2499.426514 
	C1800.963013,2421.326416 1776.916748,2345.400146 1742.395874,2272.949219 
	C1699.996948,2183.963623 1661.947021,2093.252197 1635.265503,1998.128418 
	C1627.708496,1971.186279 1621.750244,1943.904053 1618.810669,1916.042725 
	C1618.043335,1908.769409 1617.461792,1901.391846 1617.776978,1894.104492 
	C1618.936768,1867.292603 1615.186890,1840.890015 1611.049561,1814.597412 
	C1595.523193,1715.929321 1572.719604,1618.776489 1549.207520,1521.784546 
	C1545.133911,1504.980347 1540.693359,1488.265015 1536.282349,1470.098633 
	C1535.270264,1466.446411 1534.398193,1464.204102 1533.526123,1461.961914 
	C1533.029419,1462.084473 1532.532593,1462.207031 1532.035889,1462.329590 
	C1532.035889,1465.557617 1532.035889,1468.785522 1532.035889,1472.013550 
z"/>
    </g>

 

    <!-- slots and connectors -->
    <g class="stroke" filter="url(#cyanGlow)">
      <rect x="344" y="87" width="38" height="38" rx="4" fill="#0d302c" fill-opacity=".45"/>
      <rect x="246" y="129" width="38" height="38" rx="4" fill="#0d302c" fill-opacity=".45"/>
      <rect x="429" y="129" width="38" height="38" rx="4" fill="#0d302c" fill-opacity=".45"/>
      <rect x="246" y="209" width="38" height="38" rx="4" fill="#0d302c" fill-opacity=".45"/>
      <rect x="450" y="209" width="38" height="38" rx="4" fill="#0d302c" fill-opacity=".45"/>
      <rect x="246" y="290" width="38" height="38" rx="4" fill="#0d302c" fill-opacity=".45"/>
      <rect x="450" y="290" width="38" height="38" rx="4" fill="#0d302c" fill-opacity=".45"/>
      <rect x="346" y="389" width="38" height="38" rx="4" fill="#0d302c" fill-opacity=".45"/>
    </g>
    <g class="dim">
      
      

      <path d="M284 148 L334 154"/>
      <circle cx="334" cy="154" r="2" fill="#41fff1"/>


      <path d="M284 228 L362 208"/>
      <circle cx="362" cy="208" r="2" fill="#41fff1"/>

      <path d="M450 228 L403 179"/>
      <circle cx="403" cy="179" r="2" fill="#41fff1"/>

      <path d="M284 309 L348 308"/>
      <circle cx="348" cy="308" r="2" fill="#41fff1"/>

      <path d="M450 309 L413 245"/>
      <circle cx="413" cy="245" r="2" fill="#41fff1"/>

     
    </g>
    <g class="terminal small">
      <text x="356" y="82">Head</text><text x="242" y="124">Shoulders</text><text x="425" y="124">Accessory</text>
      <text x="249" y="204">Torso</text><text x="459" y="204">Arms</text><text x="252" y="285">Legs</text><text x="459" y="285">Hands</text><text x="355" y="384">Feet</text>
    </g>

    <!-- stats bar -->
    <rect x="219" y="440" width="288" height="35" rx="4" fill="#08221f" fill-opacity=".7" class="stroke"/>
    <g class="terminal small">
    <path d="M235 452 C232 447 226 450 226 455 C226 461 235 466 235 466 C235 466 244 461 244 455 C244 450 238 447 235 452Z" class="stroke" fill="none"/>


      <!-- HP -->
	<path d="M235 452 C232 447 226 450 226 455 C226 461 235 466 235 466 C235 466 244 461 244 455 C244 450 238 447 235 452Z" class="stroke" fill="none"/>
	<text x="252" y="458">HP</text>

<!-- Energy -->
	<path d="M287 446 L278 459 H286 L282 469 L293 454 H285 Z" class="stroke" fill="none"/>

	<text x="300" y="458">Energy</text>

<!-- Defense -->
	<path d="M352 447 L361 451 V460 C361 464 357 467 352 469 C347 467 343 464 343 460 V451 Z" class="stroke" fill="none"/>




	<text x="375" y="458">Defense</text>

<!-- Weight -->
	<path d="M435 452 h14 l3 14 h-20 z M438 452 a4 4 0 0 1 8 0" class="stroke" fill="none"/>

	<text x="465" y="458">Weight</text>
	<g class="faint">
	<path d="M275 440 V473"/>
    <path d="M337 440 V473"/>
    <path d="M420 440 V473"/>
    </g>
    </g>
  </g>

  <!-- Details panel -->
  <g>
    <rect x="533" y="48" width="185" height="436" rx="5" class="transparent stroke"/>
    <text x="546" y="66" class="terminal head">ITEM DETAILS</text>
    <path d="M546 75 H709" class="dim"/>
    <g transform="translate(625 246)" class="dim" stroke-width="2.2" fill="none">
      <path d="M0 -16 l13 8 v16 l-13 8 l-13 -8 v-16 z"/>
      <path d="M0 -16 v16 l13 -8 M0 0 l-13 -8 M0 0 v16"/>
    </g>
    <text x="586" y="281" class="terminal small">Select an item</text>
    <text x="589" y="295" class="terminal small">to view details</text>
  </g>
</svg>
