<svg version="1.1" id="Layer_1" xmlns="http://www.w3.org/2000/svg" xmlns:xlink="http://www.w3.org/1999/xlink" x="0px" y="0px"
	 width="100%" viewBox="0 0 2184 5173" enable-background="new 0 0 2184 5173" xml:space="preserve">
<path fill="#FFFFFF" opacity="1.000000" stroke="none" 
	d="
M678.000000,5176.000000 
	C452.000000,5176.000000 227.000000,5176.000000 2.000000,5176.000000 
	C2.000000,3451.333252 2.000000,1726.666626 2.000000,2.000000 
	C730.000000,2.000000 1458.000000,2.000000 2186.000000,2.000000 
	C2186.000000,1726.666626 2186.000000,3451.333252 2186.000000,5176.000000 
	C1683.666626,5176.000000 1181.333374,5176.000000 678.000000,5176.000000 
M1536.422363,1471.508667 
	C1540.693359,1488.265015 1545.133911,1504.980347 1549.207520,1521.784546 
	C1572.719604,1618.776489 1595.523193,1715.929321 1611.049561,1814.597412 
	C1615.186890,1840.890015 1618.936768,1867.292603 1617.776978,1894.104492 
	C1617.461792,1901.391846 1618.043335,1908.769409 1618.810669,1916.042725 
	C1621.750244,1943.904053 1627.708496,1971.186279 1635.265503,1998.128418 
	C1661.947021,2093.252197 1699.996948,2183.963623 1742.395874,2272.949219 
	C1776.916748,2345.400146 1800.963013,2421.326416 1818.599854,2499.426514 
	C1819.145630,2501.843994 1819.293091,2504.805908 1818.402222,2507.022217 
	C1809.684692,2528.711670 1807.781738,2551.642090 1806.147217,2574.548584 
	C1803.751099,2608.126953 1803.854980,2641.755859 1805.808594,2675.361572 
	C1807.721191,2708.258789 1809.741333,2741.150146 1811.879028,2774.033203 
	C1813.909180,2805.260498 1815.673096,2836.517822 1818.521973,2867.673340 
	C1819.786987,2881.507080 1823.103394,2895.197510 1826.187744,2908.794434 
	C1827.170776,2913.127930 1829.731812,2917.560059 1832.741455,2920.888428 
	C1840.817017,2929.819824 1854.559082,2926.960205 1858.019653,2915.502441 
	C1860.208618,2908.254883 1861.472168,2900.543945 1861.875854,2892.973145 
	C1863.492554,2862.642334 1861.501709,2832.395020 1858.994385,2802.168701 
	C1858.019531,2790.416016 1857.028931,2778.577393 1860.622925,2766.177246 
	C1865.398071,2769.164307 1865.786011,2773.131348 1866.207275,2777.023193 
	C1870.147827,2813.429199 1873.914673,2849.854492 1878.042603,2886.239014 
	C1880.405640,2907.066406 1883.076050,2927.868408 1886.142822,2948.602783 
	C1887.566528,2958.228027 1891.096313,2967.326416 1898.120483,2974.502197 
	C1907.778687,2984.369141 1920.332764,2982.671387 1925.550171,2970.035400 
	C1928.259399,2963.474365 1929.795776,2955.768066 1929.421021,2948.708496 
	C1927.763184,2917.478027 1925.618530,2886.259521 1922.870117,2855.105469 
	C1920.676636,2830.241455 1917.261353,2805.487549 1914.600586,2780.661865 
	C1913.876587,2773.908203 1913.817993,2767.055664 1918.126709,2758.257812 
	C1920.589844,2764.052979 1922.678589,2767.695312 1923.665771,2771.615234 
	C1924.878296,2776.428955 1925.240723,2781.466064 1925.849365,2786.421387 
	C1930.556274,2824.743896 1934.920410,2863.112549 1940.049683,2901.378418 
	C1942.701782,2921.163574 1946.765869,2940.779541 1954.138794,2959.454346 
	C1956.435425,2965.271729 1959.359253,2971.082520 1963.138794,2976.021729 
	C1969.955444,2984.929932 1982.319946,2984.151123 1988.482788,2974.800293 
	C1990.264160,2972.097168 1991.947266,2968.776367 1992.110840,2965.656738 
	C1992.770020,2953.086670 1994.101929,2940.350830 1992.812378,2927.922607 
	C1990.409790,2904.769531 1985.658569,2881.863525 1983.143433,2858.717773 
	C1979.439941,2824.636230 1976.813721,2790.436768 1973.832031,2756.278564 
	C1973.656372,2754.267090 1974.398438,2752.175049 1974.713379,2750.120605 
	C1975.385864,2749.888916 1976.058350,2749.657471 1976.730835,2749.425781 
	C1978.526489,2751.922363 1980.754517,2754.220459 1982.014160,2756.963135 
	C1983.807129,2760.866943 1985.253174,2765.012939 1986.218628,2769.200684 
	C1996.229614,2812.630371 2006.177979,2856.074951 2015.995972,2899.548584 
	C2018.997559,2912.839111 2021.192505,2926.318359 2024.439209,2939.543701 
	C2026.264526,2946.979492 2029.756958,2953.878906 2035.775635,2959.155273 
	C2044.817749,2967.082520 2061.605957,2964.738281 2064.270264,2950.813232 
	C2064.831787,2947.879639 2065.897705,2944.940186 2065.861816,2942.013916 
	C2065.750977,2933.033203 2065.833740,2923.980713 2064.724609,2915.095703 
	C2062.250977,2895.285400 2058.708496,2875.607178 2056.303955,2855.789795 
	C2050.769531,2810.177979 2045.637085,2764.517090 2040.380737,2718.871582 
	C2039.006470,2706.938232 2037.776367,2694.988525 2036.295898,2681.348877 
	C2044.530396,2688.097656 2049.020752,2695.430420 2053.858154,2702.548828 
	C2060.211914,2711.897705 2066.406006,2721.440186 2073.636719,2730.090088 
	C2087.151611,2746.257568 2102.322266,2760.801758 2121.182617,2770.715088 
	C2126.343994,2773.427734 2132.286133,2775.368164 2138.057129,2776.031738 
	C2145.654785,2776.904541 2149.531006,2772.629150 2150.306396,2764.866943 
	C2151.216309,2755.756592 2148.493164,2747.471680 2143.231445,2740.430908 
	C2129.155273,2721.595703 2119.346191,2700.433350 2109.690430,2679.284912 
	C2083.911377,2622.822998 2049.533203,2571.952148 2010.370361,2524.123779 
	C1999.591064,2510.959229 1988.288208,2498.050781 1973.342773,2489.497314 
	C1966.057495,2485.328125 1961.932373,2479.842773 1960.008179,2472.083740 
	C1959.368652,2469.504395 1958.483765,2466.986084 1957.735107,2464.432861 
	C1947.133057,2428.282227 1940.034912,2391.337646 1934.299438,2354.197998 
	C1925.461670,2296.969482 1917.002319,2239.662109 1909.732666,2182.217285 
	C1901.791504,2119.467041 1895.160156,2056.546875 1888.387207,1993.654785 
	C1883.280396,1946.234619 1875.267212,1899.394409 1862.089233,1853.532593 
	C1850.755981,1814.090332 1836.770508,1775.679810 1814.376587,1740.943970 
	C1810.722656,1735.276245 1809.362183,1729.796631 1809.623535,1723.289551 
	C1811.149902,1685.279907 1809.511719,1647.345215 1805.558716,1609.549805 
	C1799.841797,1554.888184 1790.127930,1500.846313 1778.897705,1447.078247 
	C1771.608398,1412.178833 1765.797241,1377.372437 1767.267212,1341.286011 
	C1768.825073,1303.045776 1767.123657,1264.677368 1767.046997,1226.364502 
	C1766.982178,1193.926758 1763.418701,1161.926147 1755.988892,1130.349121 
	C1739.359985,1059.673096 1699.970215,1006.695374 1633.805420,975.333252 
	C1611.938477,964.968384 1589.413818,955.578491 1566.432495,948.056763 
	C1503.474854,927.450928 1441.615112,904.194397 1381.540649,876.250061 
	C1345.046387,859.274353 1308.832031,841.782593 1274.256348,821.042603 
	C1258.328369,811.488342 1249.103516,797.860168 1245.751343,779.783569 
	C1241.286011,755.703674 1241.789429,731.366455 1241.873169,707.074463 
	C1241.934448,689.334961 1245.146484,671.906738 1249.882690,654.880798 
	C1258.690430,623.218079 1268.036255,591.704956 1277.116333,560.274109 
	C1292.147949,557.782471 1300.937866,548.321411 1307.626831,536.836670 
	C1325.990601,505.306458 1334.496948,470.998962 1333.669556,434.666351 
	C1333.302490,418.547058 1330.716187,410.047882 1309.498657,408.890747 
	C1309.221802,408.875641 1308.963623,408.514374 1308.331543,408.041412 
	C1308.331543,406.371155 1308.278931,404.425903 1308.339722,402.484192 
	C1308.994751,381.551422 1310.029053,360.622955 1310.245483,339.685944 
	C1310.525635,312.578094 1306.782715,285.879211 1299.878906,259.683716 
	C1287.088135,211.150513 1262.492920,169.995224 1221.576050,140.113022 
	C1169.242188,101.892822 1110.366821,89.829933 1047.308105,102.518906 
	C974.991699,117.070755 923.661743,159.109024 894.376282,227.048325 
	C878.177673,264.627289 873.117798,304.583588 872.517334,345.080963 
	C872.203491,366.245361 873.782410,387.437836 874.521912,409.070496 
	C872.956055,409.148071 871.319702,409.152832 869.700439,409.321503 
	C856.655762,410.680206 851.612061,415.669128 850.079956,428.835052 
	C849.772644,431.475769 849.779236,434.154205 849.667297,436.816345 
	C849.046997,451.562561 850.830139,466.082306 854.103638,480.416473 
	C858.640198,500.281158 864.703979,519.615906 875.654907,537.029419 
	C882.730896,548.281311 891.276306,557.854553 905.574707,560.248657 
	C910.910522,577.476135 916.150513,594.609192 921.523865,611.700317 
	C935.074890,654.801880 945.551575,698.358521 940.953491,744.102539 
	C939.592224,757.644775 938.483765,771.261780 936.104736,784.639160 
	C933.477783,799.410217 925.127197,810.877014 912.246826,818.793701 
	C904.879639,823.321777 897.556213,827.953857 889.958862,832.069824 
	C806.125061,877.487610 718.913269,915.006409 628.069275,944.062744 
	C596.376526,954.199646 565.206299,965.682068 536.086548,982.106689 
	C494.799805,1005.393982 463.444183,1037.833740 443.915802,1081.347656 
	C425.627136,1122.099243 417.895660,1165.291382 416.627686,1209.431274 
	C415.231140,1258.046997 416.026154,1306.728149 416.041107,1355.380737 
	C416.046021,1371.374023 415.953735,1387.254150 412.886597,1403.103394 
	C404.097046,1448.522949 395.315552,1493.953735 387.423370,1539.534668 
	C376.720764,1601.347046 371.076324,1663.610474 373.873962,1726.435669 
	C374.058044,1730.570557 373.175415,1733.958008 371.051483,1737.655884 
	C362.944000,1751.771362 354.482697,1765.791504 347.768066,1780.580322 
	C316.015961,1850.513428 302.071381,1924.896484 294.057739,2000.671753 
	C290.451233,2034.774048 287.435730,2068.944580 283.380188,2102.992432 
	C277.355988,2153.567383 271.427399,2204.175293 264.016327,2254.557373 
	C256.075897,2308.538330 246.989517,2362.367920 237.317764,2416.068115 
	C233.616486,2436.618164 226.960342,2456.640869 221.533310,2476.872070 
	C220.403870,2481.083008 218.376083,2484.456543 214.056732,2486.820068 
	C201.361084,2493.767334 190.832947,2503.506592 181.416061,2514.410889 
	C138.315948,2564.317139 101.771347,2618.477539 74.008369,2678.478516 
	C64.102669,2699.886719 54.279179,2721.430420 40.096142,2740.596436 
	C37.211628,2744.494385 35.547817,2749.427490 33.920586,2754.092773 
	C31.508430,2761.008057 30.956106,2768.281006 37.009979,2773.544922 
	C43.207943,2778.934814 50.609135,2776.630371 56.719952,2773.333252 
	C65.750771,2768.460938 74.653275,2763.038330 82.675613,2756.671875 
	C101.088989,2742.059814 116.253479,2724.407471 128.484116,2704.278320 
	C133.258255,2696.420654 138.257599,2688.720947 146.859146,2680.985596 
	C146.177078,2688.240967 145.788727,2693.401123 145.192947,2698.537109 
	C142.124527,2724.989014 139.000443,2751.434326 135.900482,2777.882324 
	C132.800186,2804.333252 129.888229,2830.807861 126.545113,2857.227783 
	C124.247818,2875.383057 120.817558,2893.406738 118.920738,2911.596436 
	C117.686638,2923.431152 117.748100,2935.482910 118.286484,2947.389648 
	C118.612999,2954.610596 122.037689,2960.776855 130.132812,2962.907959 
	C138.572174,2965.129639 145.381241,2962.427979 150.557312,2955.977051 
	C153.426270,2952.401367 155.917282,2948.187012 157.333206,2943.853516 
	C160.010666,2935.659180 162.363373,2927.271240 163.847153,2918.788330 
	C172.164658,2871.236084 182.395966,2824.106689 194.521484,2777.389648 
	C196.354263,2770.328369 198.908722,2763.441895 201.384247,2756.566162 
	C202.606644,2753.170898 204.286926,2749.822266 209.261551,2750.484131 
	C209.261551,2754.012695 209.489807,2757.313721 209.221375,2760.573975 
	C208.155960,2773.513916 207.161972,2786.466064 205.727814,2799.367920 
	C202.088684,2832.105469 198.251068,2864.821045 194.442520,2897.539551 
	C192.711548,2912.409912 190.478378,2927.233154 189.199600,2942.140381 
	C188.345779,2952.093506 188.796509,2962.234863 192.936783,2971.594727 
	C198.470032,2984.104004 212.692291,2985.853760 221.028519,2975.089600 
	C223.644882,2971.711182 225.916595,2967.843750 227.389847,2963.847656 
	C230.605713,2955.125977 233.732025,2946.308105 235.969971,2937.299805 
	C245.630295,2898.413818 249.601761,2858.634033 254.026337,2818.931641 
	C255.758957,2803.384766 257.682007,2787.859131 259.531860,2772.325439 
	C260.082520,2767.701172 261.235382,2763.384277 266.428009,2759.889648 
	C267.180573,2763.157959 268.227081,2765.624268 268.229889,2768.091309 
	C268.239807,2776.748535 268.479218,2785.468750 267.572052,2794.052734 
	C264.247955,2825.506592 259.920929,2856.863770 257.102844,2888.358398 
	C255.118332,2910.537598 254.496216,2932.876953 254.296829,2955.153809 
	C254.240845,2961.408203 256.881195,2968.219971 259.981903,2973.839600 
	C264.224976,2981.529541 273.514374,2983.021240 280.771637,2977.885742 
	C284.208954,2975.453613 287.833344,2972.255371 289.496277,2968.559570 
	C293.007568,2960.756592 296.635468,2952.589355 297.819275,2944.231934 
	C301.739227,2916.557617 304.730591,2888.747803 307.820648,2860.960938 
	C310.764496,2834.488525 313.275909,2807.967529 316.244080,2781.497803 
	C316.813354,2776.420898 318.620819,2771.482666 319.857025,2766.480469 
	C320.592590,2766.517334 321.328156,2766.554199 322.063721,2766.591064 
	C322.783020,2768.613281 324.026245,2770.609131 324.128174,2772.662109 
	C324.507141,2780.295654 324.931946,2787.967285 324.579498,2795.589600 
	C323.334351,2822.515869 321.100555,2849.416016 320.628235,2876.350098 
	C320.403198,2889.182129 322.958282,2902.122559 324.949829,2914.905518 
	C325.785706,2920.270508 328.912567,2924.894287 335.276978,2925.627441 
	C341.956635,2926.396973 348.205597,2925.331543 352.000702,2919.241211 
	C354.598297,2915.072510 357.130096,2910.457520 358.049835,2905.723389 
	C361.027924,2890.393555 364.488281,2875.001465 365.546478,2859.482178 
	C370.165527,2791.737793 374.525970,2723.966064 377.897766,2656.150391 
	C379.534180,2623.237305 379.199585,2590.189697 375.704437,2557.312744 
	C373.943634,2540.750244 371.432465,2524.339111 365.574188,2508.577148 
	C364.389313,2505.389160 364.060394,2501.351807 364.822662,2498.048828 
	C383.729858,2416.127686 409.831512,2336.758057 446.420502,2260.812500 
	C485.734497,2179.210938 519.775513,2095.411133 545.191711,2008.326538 
	C554.523499,1976.352417 562.361145,1943.986328 564.796692,1910.632935 
	C565.765564,1897.364136 565.138672,1883.984985 565.896118,1870.693604 
	C567.964966,1834.392578 573.858398,1798.555664 581.111877,1763.019409 
	C593.551636,1702.075073 606.548157,1641.236938 620.096741,1580.529541 
	C628.849182,1541.312134 639.001770,1502.407104 648.526917,1463.362183 
	C650.547974,1466.593872 651.223572,1469.789917 651.712646,1473.014282 
	C654.157898,1489.135376 655.998474,1505.370239 659.063232,1521.371338 
	C672.831177,1593.254272 687.253723,1665.012695 700.800049,1736.936646 
	C707.763855,1773.911255 713.312561,1811.285889 713.548584,1848.914551 
	C713.767578,1883.819214 711.564575,1918.789307 709.204407,1953.647583 
	C706.078796,1999.812256 702.100220,2045.927368 697.844788,2092.004395 
	C694.815002,2124.810303 690.587280,2157.452881 682.921265,2189.628906 
	C659.145386,2289.420410 639.549194,2389.955078 629.419922,2492.195557 
	C623.868103,2548.233643 619.716003,2604.351562 620.201477,2660.646240 
	C620.683777,2716.568359 622.201172,2772.500244 624.406006,2828.383057 
	C626.177124,2873.269775 629.344360,2918.110840 632.479248,2962.931152 
	C634.708496,2994.802979 637.569580,3026.641357 640.770569,3058.431885 
	C644.873169,3099.175537 649.059387,3139.925293 654.224548,3180.542969 
	C658.547302,3214.535889 663.419861,3248.513184 669.718628,3282.185303 
	C676.075073,3316.166260 685.706848,3349.516113 688.993591,3384.106689 
	C691.295654,3408.334961 693.263123,3432.567627 691.200012,3456.890625 
	C688.583252,3487.741699 685.063416,3518.524902 682.948914,3549.406982 
	C680.354431,3587.298340 679.535889,3625.245605 683.567871,3663.152100 
	C684.262817,3669.685547 684.454956,3676.468018 683.527832,3682.941895 
	C680.839722,3701.712402 676.769104,3720.300049 674.482971,3739.110352 
	C666.276855,3806.629883 662.899658,3874.352051 665.479553,3942.416992 
	C667.449829,3994.397217 671.703735,4046.100342 679.721741,4097.469727 
	C689.780029,4161.911133 699.330872,4226.450684 710.717468,4290.661133 
	C726.812256,4381.421387 744.345093,4471.926758 761.359314,4562.522949 
	C765.325745,4583.642578 766.852234,4604.351562 760.460815,4625.604492 
	C752.359741,4652.541992 749.901550,4680.444824 750.942810,4708.618164 
	C751.422363,4721.592773 751.468506,4734.584473 751.654480,4747.568848 
	C751.795044,4757.377441 749.562744,4766.337891 744.673584,4775.154785 
	C725.505310,4809.722168 701.531494,4840.776855 676.365906,4871.032227 
	C654.423706,4897.411621 632.249695,4923.633789 613.907410,4952.751953 
	C609.670227,4959.478516 605.458313,4966.406738 602.583923,4973.769043 
	C595.496460,4991.922363 600.484863,5003.744629 618.024719,5012.166504 
	C619.433228,5030.239258 629.142822,5041.238281 647.090332,5045.149414 
	C648.973206,5045.559570 650.889282,5047.496094 652.059509,5049.220215 
	C658.571594,5058.812988 667.637634,5061.088867 678.325317,5058.666016 
	C682.411560,5057.738770 686.368286,5056.241211 690.259949,5055.041992 
	C699.162964,5072.030762 715.573181,5078.088867 732.420715,5069.840332 
	C739.410278,5066.418457 745.304749,5060.645020 751.423096,5055.608398 
	C754.344910,5053.203125 756.626099,5050.019531 759.706299,5046.628418 
	C761.770020,5070.391602 773.826172,5081.515137 796.813477,5082.109375 
	C806.708618,5082.364746 816.005798,5080.108887 824.702759,5075.576172 
	C848.207031,5063.324219 865.913757,5045.697266 876.514709,5020.970215 
	C885.762085,4999.399902 891.545471,4976.930176 895.954712,4954.023926 
	C899.539917,4935.398438 902.770081,4916.703613 906.450134,4898.097656 
	C907.175476,4894.430664 908.303223,4889.981445 910.858887,4887.702148 
	C918.079224,4881.263672 922.507996,4873.263184 926.215576,4864.683594 
	C932.372803,4850.436523 934.632385,4835.301758 935.618164,4819.985352 
	C937.368774,4792.785645 932.142273,4766.256836 927.155090,4739.755371 
	C912.511353,4661.939941 904.599915,4583.614746 910.181335,4504.391113 
	C912.239441,4475.177246 915.024902,4445.966309 918.869080,4416.938477 
	C923.717224,4380.329102 929.785522,4343.876465 935.690247,4307.414551 
	C946.010681,4243.685547 956.946533,4180.053711 966.966003,4116.277832 
	C973.270874,4076.145996 977.656555,4035.747314 979.671997,3995.139160 
	C981.226868,3963.808594 979.390869,3932.650146 976.549683,3901.389893 
	C971.784119,3848.957275 971.248596,3796.315430 973.020081,3743.679932 
	C974.666260,3694.769531 975.675415,3645.823486 978.281128,3596.963623 
	C980.762573,3550.434814 984.545959,3503.961914 988.550110,3457.532959 
	C990.521301,3434.676758 993.926514,3411.921631 997.316406,3389.215088 
	C1003.311829,3349.055664 1010.017395,3309.002197 1016.004089,3268.841553 
	C1021.794922,3229.994385 1027.248535,3191.093994 1032.495850,3152.169434 
	C1038.455688,3107.960205 1044.347778,3063.737305 1049.662354,3019.447510 
	C1054.382324,2980.112793 1058.859375,2940.730713 1062.380859,2901.274658 
	C1066.907471,2850.556152 1070.988770,2799.780029 1074.046265,2748.955566 
	C1075.682983,2721.747559 1074.870728,2694.386230 1074.934326,2667.093506 
	C1074.950439,2660.163086 1074.090332,2653.230713 1073.590576,2645.660156 
	C1085.993286,2643.240479 1097.636475,2643.103027 1109.572632,2645.864014 
	C1109.572632,2648.059814 1109.707764,2649.705566 1109.552612,2651.323486 
	C1106.523560,2682.916260 1107.255981,2714.561279 1108.950317,2746.155029 
	C1110.822144,2781.055908 1113.253296,2815.935303 1116.051636,2850.775146 
	C1118.503784,2881.303467 1121.546143,2911.791504 1124.796509,2942.247070 
	C1128.223633,2974.358887 1132.044434,3006.431641 1135.989990,3038.484619 
	C1140.219604,3072.846191 1144.653809,3107.184326 1149.258179,3141.497803 
	C1154.039307,3177.126953 1158.935669,3212.742676 1164.140625,3248.312012 
	C1169.537476,3285.191895 1175.469238,3321.993408 1180.970947,3358.858398 
	C1185.440308,3388.806641 1190.508423,3418.704102 1193.698242,3448.795166 
	C1197.521973,3484.866211 1200.142822,3521.087891 1202.359741,3557.301025 
	C1205.267212,3604.796875 1208.037598,3652.325439 1209.438843,3699.881836 
	C1210.723145,3743.479736 1210.592896,3787.138672 1210.145996,3830.760986 
	C1209.893799,3855.364258 1207.851440,3879.954590 1206.410889,3904.538574 
	C1205.457031,3920.814209 1203.569824,3937.051758 1203.098511,3953.335449 
	C1201.929565,3993.717285 1204.971680,4033.976562 1210.680786,4073.858398 
	C1219.968994,4138.743652 1230.721680,4203.420410 1241.008789,4268.161621 
	C1247.275269,4307.599609 1254.364014,4346.915039 1260.077148,4386.431152 
	C1264.457397,4416.728516 1267.733521,4447.208496 1270.638306,4477.689941 
	C1273.570435,4508.457520 1276.065430,4539.144531 1274.754395,4570.301758 
	C1272.102539,4633.330078 1265.472656,4695.704590 1252.921021,4757.528320 
	C1247.535522,4784.054688 1245.088135,4810.956543 1249.818970,4837.948242 
	C1253.123413,4856.801270 1257.785278,4875.121582 1273.538086,4888.224121 
	C1274.865723,4889.328613 1275.422729,4891.669434 1275.808350,4893.544922 
	C1277.951050,4903.967285 1279.762573,4914.459961 1281.999268,4924.861328 
	C1287.241943,4949.242676 1291.608887,4973.878906 1298.270874,4997.872559 
	C1306.967896,5029.195312 1322.880981,5055.845215 1352.752930,5072.313477 
	C1367.705811,5080.557617 1382.784546,5084.993652 1399.538208,5079.945312 
	C1413.694214,5075.680176 1423.943848,5066.329590 1422.600464,5049.420898 
	C1422.543579,5048.705566 1423.147705,5047.938477 1423.339722,5047.456543 
	C1430.690796,5054.122559 1437.165649,5061.507324 1445.036011,5066.826172 
	C1463.105225,5079.037109 1482.544556,5073.985352 1493.215820,5055.135254 
	C1496.924194,5056.263184 1500.639282,5057.586914 1504.450439,5058.516113 
	C1515.534058,5061.218750 1525.160645,5059.135254 1531.217529,5048.677246 
	C1533.310059,5045.064453 1536.385620,5045.004395 1539.478760,5044.196777 
	C1550.494507,5041.320801 1558.684570,5035.006836 1562.702515,5024.203125 
	C1564.157104,5020.291504 1564.410156,5015.932129 1565.174683,5011.967773 
	C1582.124268,5004.396484 1587.181030,4994.056152 1581.591309,4976.616699 
	C1579.386230,4969.737305 1576.182983,4962.841309 1571.981934,4956.997559 
	C1555.275391,4933.758301 1538.573730,4910.473633 1520.785400,4888.066406 
	C1497.385132,4858.590332 1472.038452,4830.563965 1452.502319,4798.236816 
	C1428.208252,4758.036621 1431.110840,4770.520020 1432.178955,4723.631836 
	C1432.972412,4688.791992 1431.619507,4654.342285 1421.805786,4620.739746 
	C1416.988525,4604.245605 1417.389648,4587.909180 1420.498657,4571.362305 
	C1432.723877,4506.298828 1445.209717,4441.282715 1457.122559,4376.162109 
	C1467.124146,4321.488770 1476.878296,4266.762695 1485.970093,4211.932617 
	C1493.591553,4165.969238 1500.396851,4119.863770 1507.008667,4073.741211 
	C1512.774414,4033.520264 1516.164185,3993.026123 1517.552124,3952.428223 
	C1519.134399,3906.143799 1519.603027,3859.793945 1515.806885,3813.603027 
	C1513.027222,3779.780518 1508.397339,3746.113281 1504.928711,3712.342285 
	C1503.211060,3695.619629 1497.643188,3679.679688 1499.558350,3662.116455 
	C1505.945190,3603.541016 1501.578613,3544.997803 1494.909790,3486.721191 
	C1490.176270,3445.356445 1490.417969,3404.235840 1497.129761,3363.281494 
	C1501.051880,3339.349365 1507.763306,3315.875244 1511.716553,3291.946533 
	C1519.037354,3247.635986 1526.196411,3203.258789 1531.677490,3158.694824 
	C1537.650391,3110.131592 1542.296265,3061.378906 1546.323364,3012.609863 
	C1550.952515,2956.549805 1554.764648,2900.409912 1558.033325,2844.252686 
	C1562.349243,2770.103516 1564.170044,2695.881348 1562.391357,2621.588379 
	C1560.907471,2559.603516 1555.525879,2497.939697 1547.470581,2436.517578 
	C1538.594604,2368.837891 1526.027100,2301.796143 1510.835449,2235.245605 
	C1505.135254,2210.274170 1498.726440,2185.416504 1494.278687,2160.218018 
	C1485.589722,2110.993164 1482.213623,2061.112793 1478.224487,2011.347290 
	C1475.378784,1975.847534 1473.609497,1940.262573 1470.885742,1904.751831 
	C1468.382446,1872.116333 1468.965698,1839.564331 1472.486938,1807.078247 
	C1478.302979,1753.418945 1488.441406,1700.455566 1498.828979,1647.542603 
	C1510.300415,1589.108887 1524.171265,1531.129517 1532.957153,1471.399048 
	C1533.943726,1470.949463 1534.930298,1470.499756 1536.422363,1471.508667 
z"/>
<path fill="#000000" opacity="1.000000" stroke="none" 
	d="
M1532.035889,1472.013550 
	C1524.171265,1531.129517 1510.300415,1589.108887 1498.828979,1647.542603 
	C1488.441406,1700.455566 1478.302979,1753.418945 1472.486938,1807.078247 
	C1468.965698,1839.564331 1468.382446,1872.116333 1470.885742,1904.751831 
	C1473.609497,1940.262573 1475.378784,1975.847534 1478.224487,2011.347290 
	C1482.213623,2061.112793 1485.589722,2110.993164 1494.278687,2160.218018 
	C1498.726440,2185.416504 1505.135254,2210.274170 1510.835449,2235.245605 
	C1526.027100,2301.796143 1538.594604,2368.837891 1547.470581,2436.517578 
	C1555.525879,2497.939697 1560.907471,2559.603516 1562.391357,2621.588379 
	C1564.170044,2695.881348 1562.349243,2770.103516 1558.033325,2844.252686 
	C1554.764648,2900.409912 1550.952515,2956.549805 1546.323364,3012.609863 
	C1542.296265,3061.378906 1537.650391,3110.131592 1531.677490,3158.694824 
	C1526.196411,3203.258789 1519.037354,3247.635986 1511.716553,3291.946533 
	C1507.763306,3315.875244 1501.051880,3339.349365 1497.129761,3363.281494 
	C1490.417969,3404.235840 1490.176270,3445.356445 1494.909790,3486.721191 
	C1501.578613,3544.997803 1505.945190,3603.541016 1499.558350,3662.116455 
	C1497.643188,3679.679688 1503.211060,3695.619629 1504.928711,3712.342285 
	C1508.397339,3746.113281 1513.027222,3779.780518 1515.806885,3813.603027 
	C1519.603027,3859.793945 1519.134399,3906.143799 1517.552124,3952.428223 
	C1516.164185,3993.026123 1512.774414,4033.520264 1507.008667,4073.741211 
	C1500.396851,4119.863770 1493.591553,4165.969238 1485.970093,4211.932617 
	C1476.878296,4266.762695 1467.124146,4321.488770 1457.122559,4376.162109 
	C1445.209717,4441.282715 1432.723877,4506.298828 1420.498657,4571.362305 
	C1417.389648,4587.909180 1416.988525,4604.245605 1421.805786,4620.739746 
	C1431.619507,4654.342285 1432.972412,4688.791992 1432.178955,4723.631836 
	C1431.110840,4770.520020 1428.208252,4758.036621 1452.502319,4798.236816 
	C1472.038452,4830.563965 1497.385132,4858.590332 1520.785400,4888.066406 
	C1538.573730,4910.473633 1555.275391,4933.758301 1571.981934,4956.997559 
	C1576.182983,4962.841309 1579.386230,4969.737305 1581.591309,4976.616699 
	C1587.181030,4994.056152 1582.124268,5004.396484 1565.174683,5011.967773 
	C1564.410156,5015.932129 1564.157104,5020.291504 1562.702515,5024.203125 
	C1558.684570,5035.006836 1550.494507,5041.320801 1539.478760,5044.196777 
	C1536.385620,5045.004395 1533.310059,5045.064453 1531.217529,5048.677246 
	C1525.160645,5059.135254 1515.534058,5061.218750 1504.450439,5058.516113 
	C1500.639282,5057.586914 1496.924194,5056.263184 1493.215820,5055.135254 
	C1482.544556,5073.985352 1463.105225,5079.037109 1445.036011,5066.826172 
	C1437.165649,5061.507324 1430.690796,5054.122559 1423.339722,5047.456543 
	C1423.147705,5047.938477 1422.543579,5048.705566 1422.600464,5049.420898 
	C1423.943848,5066.329590 1413.694214,5075.680176 1399.538208,5079.945312 
	C1382.784546,5084.993652 1367.705811,5080.557617 1352.752930,5072.313477 
	C1322.880981,5055.845215 1306.967896,5029.195312 1298.270874,4997.872559 
	C1291.608887,4973.878906 1287.241943,4949.242676 1281.999268,4924.861328 
	C1279.762573,4914.459961 1277.951050,4903.967285 1275.808350,4893.544922 
	C1275.422729,4891.669434 1274.865723,4889.328613 1273.538086,4888.224121 
	C1257.785278,4875.121582 1253.123413,4856.801270 1249.818970,4837.948242 
	C1245.088135,4810.956543 1247.535522,4784.054688 1252.921021,4757.528320 
	C1265.472656,4695.704590 1272.102539,4633.330078 1274.754395,4570.301758 
	C1276.065430,4539.144531 1273.570435,4508.457520 1270.638306,4477.689941 
	C1267.733521,4447.208496 1264.457397,4416.728516 1260.077148,4386.431152 
	C1254.364014,4346.915039 1247.275269,4307.599609 1241.008789,4268.161621 
	C1230.721680,4203.420410 1219.968994,4138.743652 1210.680786,4073.858398 
	C1204.971680,4033.976562 1201.929565,3993.717285 1203.098511,3953.335449 
	C1203.569824,3937.051758 1205.457031,3920.814209 1206.410889,3904.538574 
	C1207.851440,3879.954590 1209.893799,3855.364258 1210.145996,3830.760986 
	C1210.592896,3787.138672 1210.723145,3743.479736 1209.438843,3699.881836 
	C1208.037598,3652.325439 1205.267212,3604.796875 1202.359741,3557.301025 
	C1200.142822,3521.087891 1197.521973,3484.866211 1193.698242,3448.795166 
	C1190.508423,3418.704102 1185.440308,3388.806641 1180.970947,3358.858398 
	C1175.469238,3321.993408 1169.537476,3285.191895 1164.140625,3248.312012 
	C1158.935669,3212.742676 1154.039307,3177.126953 1149.258179,3141.497803 
	C1144.653809,3107.184326 1140.219604,3072.846191 1135.989990,3038.484619 
	C1132.044434,3006.431641 1128.223633,2974.358887 1124.796509,2942.247070 
	C1121.546143,2911.791504 1118.503784,2881.303467 1116.051636,2850.775146 
	C1113.253296,2815.935303 1110.822144,2781.055908 1108.950317,2746.155029 
	C1107.255981,2714.561279 1106.523560,2682.916260 1109.552612,2651.323486 
	C1109.707764,2649.705566 1109.572632,2648.059814 1109.572632,2645.864014 
	C1097.636475,2643.103027 1085.993286,2643.240479 1073.590576,2645.660156 
	C1074.090332,2653.230713 1074.950439,2660.163086 1074.934326,2667.093506 
	C1074.870728,2694.386230 1075.682983,2721.747559 1074.046265,2748.955566 
	C1070.988770,2799.780029 1066.907471,2850.556152 1062.380859,2901.274658 
	C1058.859375,2940.730713 1054.382324,2980.112793 1049.662354,3019.447510 
	C1044.347778,3063.737305 1038.455688,3107.960205 1032.495850,3152.169434 
	C1027.248535,3191.093994 1021.794922,3229.994385 1016.004089,3268.841553 
	C1010.017395,3309.002197 1003.311829,3349.055664 997.316406,3389.215088 
	C993.926514,3411.921631 990.521301,3434.676758 988.550110,3457.532959 
	C984.545959,3503.961914 980.762573,3550.434814 978.281128,3596.963623 
	C975.675415,3645.823486 974.666260,3694.769531 973.020081,3743.679932 
	C971.248596,3796.315430 971.784119,3848.957275 976.549683,3901.389893 
	C979.390869,3932.650146 981.226868,3963.808594 979.671997,3995.139160 
	C977.656555,4035.747314 973.270874,4076.145996 966.966003,4116.277832 
	C956.946533,4180.053711 946.010681,4243.685547 935.690247,4307.414551 
	C929.785522,4343.876465 923.717224,4380.329102 918.869080,4416.938477 
	C915.024902,4445.966309 912.239441,4475.177246 910.181335,4504.391113 
	C904.599915,4583.614746 912.511353,4661.939941 927.155090,4739.755371 
	C932.142273,4766.256836 937.368774,4792.785645 935.618164,4819.985352 
	C934.632385,4835.301758 932.372803,4850.436523 926.215576,4864.683594 
	C922.507996,4873.263184 918.079224,4881.263672 910.858887,4887.702148 
	C908.303223,4889.981445 907.175476,4894.430664 906.450134,4898.097656 
	C902.770081,4916.703613 899.539917,4935.398438 895.954712,4954.023926 
	C891.545471,4976.930176 885.762085,4999.399902 876.514709,5020.970215 
	C865.913757,5045.697266 848.207031,5063.324219 824.702759,5075.576172 
	C816.005798,5080.108887 806.708618,5082.364746 796.813477,5082.109375 
	C773.826172,5081.515137 761.770020,5070.391602 759.706299,5046.628418 
	C756.626099,5050.019531 754.344910,5053.203125 751.423096,5055.608398 
	C745.304749,5060.645020 739.410278,5066.418457 732.420715,5069.840332 
	C715.573181,5078.088867 699.162964,5072.030762 690.259949,5055.041992 
	C686.368286,5056.241211 682.411560,5057.738770 678.325317,5058.666016 
	C667.637634,5061.088867 658.571594,5058.812988 652.059509,5049.220215 
	C650.889282,5047.496094 648.973206,5045.559570 647.090332,5045.149414 
	C629.142822,5041.238281 619.433228,5030.239258 618.024719,5012.166504 
	C600.484863,5003.744629 595.496460,4991.922363 602.583923,4973.769043 
	C605.458313,4966.406738 609.670227,4959.478516 613.907410,4952.751953 
	C632.249695,4923.633789 654.423706,4897.411621 676.365906,4871.032227 
	C701.531494,4840.776855 725.505310,4809.722168 744.673584,4775.154785 
	C749.562744,4766.337891 751.795044,4757.377441 751.654480,4747.568848 
	C751.468506,4734.584473 751.422363,4721.592773 750.942810,4708.618164 
	C749.901550,4680.444824 752.359741,4652.541992 760.460815,4625.604492 
	C766.852234,4604.351562 765.325745,4583.642578 761.359314,4562.522949 
	C744.345093,4471.926758 726.812256,4381.421387 710.717468,4290.661133 
	C699.330872,4226.450684 689.780029,4161.911133 679.721741,4097.469727 
	C671.703735,4046.100342 667.449829,3994.397217 665.479553,3942.416992 
	C662.899658,3874.352051 666.276855,3806.629883 674.482971,3739.110352 
	C676.769104,3720.300049 680.839722,3701.712402 683.527832,3682.941895 
	C684.454956,3676.468018 684.262817,3669.685547 683.567871,3663.152100 
	C679.535889,3625.245605 680.354431,3587.298340 682.948914,3549.406982 
	C685.063416,3518.524902 688.583252,3487.741699 691.200012,3456.890625 
	C693.263123,3432.567627 691.295654,3408.334961 688.993591,3384.106689 
	C685.706848,3349.516113 676.075073,3316.166260 669.718628,3282.185303 
	C663.419861,3248.513184 658.547302,3214.535889 654.224548,3180.542969 
	C649.059387,3139.925293 644.873169,3099.175537 640.770569,3058.431885 
	C637.569580,3026.641357 634.708496,2994.802979 632.479248,2962.931152 
	C629.344360,2918.110840 626.177124,2873.269775 624.406006,2828.383057 
	C622.201172,2772.500244 620.683777,2716.568359 620.201477,2660.646240 
	C619.716003,2604.351562 623.868103,2548.233643 629.419922,2492.195557 
	C639.549194,2389.955078 659.145386,2289.420410 682.921265,2189.628906 
	C690.587280,2157.452881 694.815002,2124.810303 697.844788,2092.004395 
	C702.100220,2045.927368 706.078796,1999.812256 709.204407,1953.647583 
	C711.564575,1918.789307 713.767578,1883.819214 713.548584,1848.914551 
	C713.312561,1811.285889 707.763855,1773.911255 700.800049,1736.936646 
	C687.253723,1665.012695 672.831177,1593.254272 659.063232,1521.371338 
	C655.998474,1505.370239 654.157898,1489.135376 651.712646,1473.014282 
	C651.223572,1469.789917 650.547974,1466.593872 648.526917,1463.362183 
	C639.001770,1502.407104 628.849182,1541.312134 620.096741,1580.529541 
	C606.548157,1641.236938 593.551636,1702.075073 581.111877,1763.019409 
	C573.858398,1798.555664 567.964966,1834.392578 565.896118,1870.693604 
	C565.138672,1883.984985 565.765564,1897.364136 564.796692,1910.632935 
	C562.361145,1943.986328 554.523499,1976.352417 545.191711,2008.326538 
	C519.775513,2095.411133 485.734497,2179.210938 446.420502,2260.812500 
	C409.831512,2336.758057 383.729858,2416.127686 364.822662,2498.048828 
	C364.060394,2501.351807 364.389313,2505.389160 365.574188,2508.577148 
	C371.432465,2524.339111 373.943634,2540.750244 375.704437,2557.312744 
	C379.199585,2590.189697 379.534180,2623.237305 377.897766,2656.150391 
	C374.525970,2723.966064 370.165527,2791.737793 365.546478,2859.482178 
	C364.488281,2875.001465 361.027924,2890.393555 358.049835,2905.723389 
	C357.130096,2910.457520 354.598297,2915.072510 352.000702,2919.241211 
	C348.205597,2925.331543 341.956635,2926.396973 335.276978,2925.627441 
	C328.912567,2924.894287 325.785706,2920.270508 324.949829,2914.905518 
	C322.958282,2902.122559 320.403198,2889.182129 320.628235,2876.350098 
	C321.100555,2849.416016 323.334351,2822.515869 324.579498,2795.589600 
	C324.931946,2787.967285 324.507141,2780.295654 324.128174,2772.662109 
	C324.026245,2770.609131 322.783020,2768.613281 322.063721,2766.591064 
	C321.328156,2766.554199 320.592590,2766.517334 319.857025,2766.480469 
	C318.620819,2771.482666 316.813354,2776.420898 316.244080,2781.497803 
	C313.275909,2807.967529 310.764496,2834.488525 307.820648,2860.960938 
	C304.730591,2888.747803 301.739227,2916.557617 297.819275,2944.231934 
	C296.635468,2952.589355 293.007568,2960.756592 289.496277,2968.559570 
	C287.833344,2972.255371 284.208954,2975.453613 280.771637,2977.885742 
	C273.514374,2983.021240 264.224976,2981.529541 259.981903,2973.839600 
	C256.881195,2968.219971 254.240845,2961.408203 254.296829,2955.153809 
	C254.496216,2932.876953 255.118332,2910.537598 257.102844,2888.358398 
	C259.920929,2856.863770 264.247955,2825.506592 267.572052,2794.052734 
	C268.479218,2785.468750 268.239807,2776.748535 268.229889,2768.091309 
	C268.227081,2765.624268 267.180573,2763.157959 266.428009,2759.889648 
	C261.235382,2763.384277 260.082520,2767.701172 259.531860,2772.325439 
	C257.682007,2787.859131 255.758957,2803.384766 254.026337,2818.931641 
	C249.601761,2858.634033 245.630295,2898.413818 235.969971,2937.299805 
	C233.732025,2946.308105 230.605713,2955.125977 227.389847,2963.847656 
	C225.916595,2967.843750 223.644882,2971.711182 221.028519,2975.089600 
	C212.692291,2985.853760 198.470032,2984.104004 192.936783,2971.594727 
	C188.796509,2962.234863 188.345779,2952.093506 189.199600,2942.140381 
	C190.478378,2927.233154 192.711548,2912.409912 194.442520,2897.539551 
	C198.251068,2864.821045 202.088684,2832.105469 205.727814,2799.367920 
	C207.161972,2786.466064 208.155960,2773.513916 209.221375,2760.573975 
	C209.489807,2757.313721 209.261551,2754.012695 209.261551,2750.484131 
	C204.286926,2749.822266 202.606644,2753.170898 201.384247,2756.566162 
	C198.908722,2763.441895 196.354263,2770.328369 194.521484,2777.389648 
	C182.395966,2824.106689 172.164658,2871.236084 163.847153,2918.788330 
	C162.363373,2927.271240 160.010666,2935.659180 157.333206,2943.853516 
	C155.917282,2948.187012 153.426270,2952.401367 150.557312,2955.977051 
	C145.381241,2962.427979 138.572174,2965.129639 130.132812,2962.907959 
	C122.037689,2960.776855 118.612999,2954.610596 118.286484,2947.389648 
	C117.748100,2935.482910 117.686638,2923.431152 118.920738,2911.596436 
	C120.817558,2893.406738 124.247818,2875.383057 126.545113,2857.227783 
	C129.888229,2830.807861 132.800186,2804.333252 135.900482,2777.882324 
	C139.000443,2751.434326 142.124527,2724.989014 145.192947,2698.537109 
	C145.788727,2693.401123 146.177078,2688.240967 146.859146,2680.985596 
	C138.257599,2688.720947 133.258255,2696.420654 128.484116,2704.278320 
	C116.253479,2724.407471 101.088989,2742.059814 82.675613,2756.671875 
	C74.653275,2763.038330 65.750771,2768.460938 56.719952,2773.333252 
	C50.609135,2776.630371 43.207943,2778.934814 37.009979,2773.544922 
	C30.956106,2768.281006 31.508430,2761.008057 33.920586,2754.092773 
	C35.547817,2749.427490 37.211628,2744.494385 40.096142,2740.596436 
	C54.279179,2721.430420 64.102669,2699.886719 74.008369,2678.478516 
	C101.771347,2618.477539 138.315948,2564.317139 181.416061,2514.410889 
	C190.832947,2503.506592 201.361084,2493.767334 214.056732,2486.820068 
	C218.376083,2484.456543 220.403870,2481.083008 221.533310,2476.872070 
	C226.960342,2456.640869 233.616486,2436.618164 237.317764,2416.068115 
	C246.989517,2362.367920 256.075897,2308.538330 264.016327,2254.557373 
	C271.427399,2204.175293 277.355988,2153.567383 283.380188,2102.992432 
	C287.435730,2068.944580 290.451233,2034.774048 294.057739,2000.671753 
	C302.071381,1924.896484 316.015961,1850.513428 347.768066,1780.580322 
	C354.482697,1765.791504 362.944000,1751.771362 371.051483,1737.655884 
	C373.175415,1733.958008 374.058044,1730.570557 373.873962,1726.435669 
	C371.076324,1663.610474 376.720764,1601.347046 387.423370,1539.534668 
	C395.315552,1493.953735 404.097046,1448.522949 412.886597,1403.103394 
	C415.953735,1387.254150 416.046021,1371.374023 416.041107,1355.380737 
	C416.026154,1306.728149 415.231140,1258.046997 416.627686,1209.431274 
	C417.895660,1165.291382 425.627136,1122.099243 443.915802,1081.347656 
	C463.444183,1037.833740 494.799805,1005.393982 536.086548,982.106689 
	C565.206299,965.682068 596.376526,954.199646 628.069275,944.062744 
	C718.913269,915.006409 806.125061,877.487610 889.958862,832.069824 
	C897.556213,827.953857 904.879639,823.321777 912.246826,818.793701 
	C925.127197,810.877014 933.477783,799.410217 936.104736,784.639160 
	C938.483765,771.261780 939.592224,757.644775 940.953491,744.102539 
	C945.551575,698.358521 935.074890,654.801880 921.523865,611.700317 
	C916.150513,594.609192 910.910522,577.476135 905.574707,560.248657 
	C891.276306,557.854553 882.730896,548.281311 875.654907,537.029419 
	C864.703979,519.615906 858.640198,500.281158 854.103638,480.416473 
	C850.830139,466.082306 849.046997,451.562561 849.667297,436.816345 
	C849.779236,434.154205 849.772644,431.475769 850.079956,428.835052 
	C851.612061,415.669128 856.655762,410.680206 869.700439,409.321503 
	C871.319702,409.152832 872.956055,409.148071 874.521912,409.070496 
	C873.782410,387.437836 872.203491,366.245361 872.517334,345.080963 
	C873.117798,304.583588 878.177673,264.627289 894.376282,227.048325 
	C923.661743,159.109024 974.991699,117.070755 1047.308105,102.518906 
	C1110.366821,89.829933 1169.242188,101.892822 1221.576050,140.113022 
	C1262.492920,169.995224 1287.088135,211.150513 1299.878906,259.683716 
	C1306.782715,285.879211 1310.525635,312.578094 1310.245483,339.685944 
	C1310.029053,360.622955 1308.994751,381.551422 1308.339722,402.484192 
	C1308.278931,404.425903 1308.331543,406.371155 1308.331543,408.041412 
	C1308.963623,408.514374 1309.221802,408.875641 1309.498657,408.890747 
	C1330.716187,410.047882 1333.302490,418.547058 1333.669556,434.666351 
	C1334.496948,470.998962 1325.990601,505.306458 1307.626831,536.836670 
	C1300.937866,548.321411 1292.147949,557.782471 1277.116333,560.274109 
	C1268.036255,591.704956 1258.690430,623.218079 1249.882690,654.880798 
	C1245.146484,671.906738 1241.934448,689.334961 1241.873169,707.074463 
	C1241.789429,731.366455 1241.286011,755.703674 1245.751343,779.783569 
	C1249.103516,797.860168 1258.328369,811.488342 1274.256348,821.042603 
	C1308.832031,841.782593 1345.046387,859.274353 1381.540649,876.250061 
	C1441.615112,904.194397 1503.474854,927.450928 1566.432495,948.056763 
	C1589.413818,955.578491 1611.938477,964.968384 1633.805420,975.333252 
	C1699.970215,1006.695374 1739.359985,1059.673096 1755.988892,1130.349121 
	C1763.418701,1161.926147 1766.982178,1193.926758 1767.046997,1226.364502 
	C1767.123657,1264.677368 1768.825073,1303.045776 1767.267212,1341.286011 
	C1765.797241,1377.372437 1771.608398,1412.178833 1778.897705,1447.078247 
	C1790.127930,1500.846313 1799.841797,1554.888184 1805.558716,1609.549805 
	C1809.511719,1647.345215 1811.149902,1685.279907 1809.623535,1723.289551 
	C1809.362183,1729.796631 1810.722656,1735.276245 1814.376587,1740.943970 
	C1836.770508,1775.679810 1850.755981,1814.090332 1862.089233,1853.532593 
	C1875.267212,1899.394409 1883.280396,1946.234619 1888.387207,1993.654785 
	C1895.160156,2056.546875 1901.791504,2119.467041 1909.732666,2182.217285 
	C1917.002319,2239.662109 1925.461670,2296.969482 1934.299438,2354.197998 
	C1940.034912,2391.337646 1947.133057,2428.282227 1957.735107,2464.432861 
	C1958.483765,2466.986084 1959.368652,2469.504395 1960.008179,2472.083740 
	C1961.932373,2479.842773 1966.057495,2485.328125 1973.342773,2489.497314 
	C1988.288208,2498.050781 1999.591064,2510.959229 2010.370361,2524.123779 
	C2049.533203,2571.952148 2083.911377,2622.822998 2109.690430,2679.284912 
	C2119.346191,2700.433350 2129.155273,2721.595703 2143.231445,2740.430908 
	C2148.493164,2747.471680 2151.216309,2755.756592 2150.306396,2764.866943 
	C2149.531006,2772.629150 2145.654785,2776.904541 2138.057129,2776.031738 
	C2132.286133,2775.368164 2126.343994,2773.427734 2121.182617,2770.715088 
	C2102.322266,2760.801758 2087.151611,2746.257568 2073.636719,2730.090088 
	C2066.406006,2721.440186 2060.211914,2711.897705 2053.858154,2702.548828 
	C2049.020752,2695.430420 2044.530396,2688.097656 2036.295898,2681.348877 
	C2037.776367,2694.988525 2039.006470,2706.938232 2040.380737,2718.871582 
	C2045.637085,2764.517090 2050.769531,2810.177979 2056.303955,2855.789795 
	C2058.708496,2875.607178 2062.250977,2895.285400 2064.724609,2915.095703 
	C2065.833740,2923.980713 2065.750977,2933.033203 2065.861816,2942.013916 
	C2065.897705,2944.940186 2064.831787,2947.879639 2064.270264,2950.813232 
	C2061.605957,2964.738281 2044.817749,2967.082520 2035.775635,2959.155273 
	C2029.756958,2953.878906 2026.264526,2946.979492 2024.439209,2939.543701 
	C2021.192505,2926.318359 2018.997559,2912.839111 2015.995972,2899.548584 
	C2006.177979,2856.074951 1996.229614,2812.630371 1986.218628,2769.200684 
	C1985.253174,2765.012939 1983.807129,2760.866943 1982.014160,2756.963135 
	C1980.754517,2754.220459 1978.526489,2751.922363 1976.730835,2749.425781 
	C1976.058350,2749.657471 1975.385864,2749.888916 1974.713379,2750.120605 
	C1974.398438,2752.175049 1973.656372,2754.267090 1973.832031,2756.278564 
	C1976.813721,2790.436768 1979.439941,2824.636230 1983.143433,2858.717773 
	C1985.658569,2881.863525 1990.409790,2904.769531 1992.812378,2927.922607 
	C1994.101929,2940.350830 1992.770020,2953.086670 1992.110840,2965.656738 
	C1991.947266,2968.776367 1990.264160,2972.097168 1988.482788,2974.800293 
	C1982.319946,2984.151123 1969.955444,2984.929932 1963.138794,2976.021729 
	C1959.359253,2971.082520 1956.435425,2965.271729 1954.138794,2959.454346 
	C1946.765869,2940.779541 1942.701782,2921.163574 1940.049683,2901.378418 
	C1934.920410,2863.112549 1930.556274,2824.743896 1925.849365,2786.421387 
	C1925.240723,2781.466064 1924.878296,2776.428955 1923.665771,2771.615234 
	C1922.678589,2767.695312 1920.589844,2764.052979 1918.126709,2758.257812 
	C1913.817993,2767.055664 1913.876587,2773.908203 1914.600586,2780.661865 
	C1917.261353,2805.487549 1920.676636,2830.241455 1922.870117,2855.105469 
	C1925.618530,2886.259521 1927.763184,2917.478027 1929.421021,2948.708496 
	C1929.795776,2955.768066 1928.259399,2963.474365 1925.550171,2970.035400 
	C1920.332764,2982.671387 1907.778687,2984.369141 1898.120483,2974.502197 
	C1891.096313,2967.326416 1887.566528,2958.228027 1886.142822,2948.602783 
	C1883.076050,2927.868408 1880.405640,2907.066406 1878.042603,2886.239014 
	C1873.914673,2849.854492 1870.147827,2813.429199 1866.207275,2777.023193 
	C1865.786011,2773.131348 1865.398071,2769.164307 1860.622925,2766.177246 
	C1857.028931,2778.577393 1858.019531,2790.416016 1858.994385,2802.168701 
	C1861.501709,2832.395020 1863.492554,2862.642334 1861.875854,2892.973145 
	C1861.472168,2900.543945 1860.208618,2908.254883 1858.019653,2915.502441 
	C1854.559082,2926.960205 1840.817017,2929.819824 1832.741455,2920.888428 
	C1829.731812,2917.560059 1827.170776,2913.127930 1826.187744,2908.794434 
	C1823.103394,2895.197510 1819.786987,2881.507080 1818.521973,2867.673340 
	C1815.673096,2836.517822 1813.909180,2805.260498 1811.879028,2774.033203 
	C1809.741333,2741.150146 1807.721191,2708.258789 1805.808594,2675.361572 
	C1803.854980,2641.755859 1803.751099,2608.126953 1806.147217,2574.548584 
	C1807.781738,2551.642090 1809.684692,2528.711670 1818.402222,2507.022217 
	C1819.293091,2504.805908 1819.145630,2501.843994 1818.599854,2499.426514 
	C1800.963013,2421.326416 1776.916748,2345.400146 1742.395874,2272.949219 
	C1699.996948,2183.963623 1661.947021,2093.252197 1635.265503,1998.128418 
	C1627.708496,1971.186279 1621.750244,1943.904053 1618.810669,1916.042725 
	C1618.043335,1908.769409 1617.461792,1901.391846 1617.776978,1894.104492 
	C1618.936768,1867.292603 1615.186890,1840.890015 1611.049561,1814.597412 
	C1595.523193,1715.929321 1572.719604,1618.776489 1549.207520,1521.784546 
	C1545.133911,1504.980347 1540.693359,1488.265015 1536.282349,1470.098633 
	C1535.270264,1466.446411 1534.398193,1464.204102 1533.526123,1461.961914 
	C1533.029419,1462.084473 1532.532593,1462.207031 1532.035889,1462.329590 
	C1532.035889,1465.557617 1532.035889,1468.785522 1532.035889,1472.013550 
z"/>
<path fill="#B1BABA" opacity="1.000000" stroke="none" 
	d="
M1532.496582,1471.706299 
	C1532.035889,1468.785522 1532.035889,1465.557617 1532.035889,1462.329590 
	C1532.532593,1462.207031 1533.029419,1462.084473 1533.526123,1461.961914 
	C1534.398193,1464.204102 1535.270264,1466.446411 1536.029541,1469.369385 
	C1534.930298,1470.499756 1533.943726,1470.949463 1532.496582,1471.706299 
z"/>
</svg>